<?xml version="1.0" encoding="UTF-8" standalone="no"?>
<!DOCTYPE svg PUBLIC "-//W3C//DTD SVG 1.1//EN" "http://www.w3.org/Graphics/SVG/1.1/DTD/svg11.dtd">
<svg version="1.1" xmlns="http://www.w3.org/2000/svg" xmlns:xlink="http://www.w3.org/1999/xlink" preserveAspectRatio="xMidYMid meet" viewBox="250.22605015673975 193.4217138557991 100.29490666666658 118.96512000000001" width="96.29" height="114.97"><defs><path d="M324.07 301.71C324.07 305.95 314.33 309.39 302.31 309.39C290.29 309.39 280.55 305.95 280.55 301.71C280.55 297.47 290.29 294.03 302.31 294.03C314.33 294.03 324.07 297.47 324.07 301.71Z" id="a2796vQEf6"></path><path d="M288.3 194.43L288.41 194.44L288.52 194.46L288.62 194.48L288.73 194.51L288.83 194.55L288.92 194.59L289.02 194.63L289.11 194.69L289.2 194.75L289.29 194.81L289.38 194.88L289.46 194.96L289.55 195.05L289.63 195.14L289.71 195.23L289.79 195.34L289.87 195.45L289.95 195.56L290.03 195.69L290.1 195.82L290.18 195.96L290.26 196.1L290.34 196.25L290.42 196.41L290.5 196.57L290.58 196.75L290.69 196.98L290.81 197.21L290.93 197.43L291.06 197.65L291.19 197.86L291.32 198.06L291.46 198.25L291.6 198.44L291.74 198.62L291.89 198.8L292.05 198.96L292.2 199.13L292.36 199.28L292.53 199.43L292.69 199.57L292.87 199.71L293.04 199.84L293.22 199.96L293.4 200.08L293.59 200.19L293.78 200.29L293.97 200.39L294.17 200.48L294.37 200.57L294.57 200.65L294.78 200.73L294.99 200.8L295.21 200.86L295.42 200.92L295.65 200.98L295.87 201.03L296.1 201.07L296.33 201.11L296.57 201.14L296.8 201.17L297.04 201.19L297.29 201.2L297.54 201.22L297.79 201.22L298.04 201.23L298.39 201.23L298.75 201.23L299.1 201.22L299.44 201.22L299.79 201.22L300.14 201.22L300.49 201.22L300.83 201.21L301.18 201.21L301.53 201.21L301.87 201.21L302.21 201.22L302.56 201.22L302.9 201.22L303.24 201.23L303.59 201.23L303.93 201.24L304.27 201.25L304.61 201.27L304.95 201.28L305.29 201.3L305.63 201.32L305.97 201.34L306.31 201.37L306.64 201.39L306.98 201.43L307.32 201.46L307.66 201.5L308 201.54L308.33 201.59L308.67 201.64L309.01 201.69L309.34 201.75L309.68 201.81L310.02 201.88L310.35 201.95L310.69 202.03L311.02 202.11L311.36 202.2L311.7 202.29L312.25 202.46L312.8 202.63L313.33 202.82L313.85 203.02L314.37 203.22L314.87 203.44L315.37 203.66L315.85 203.9L316.32 204.15L316.79 204.4L317.24 204.67L317.69 204.95L318.13 205.23L318.55 205.53L318.97 205.83L319.38 206.14L319.78 206.47L320.17 206.8L320.55 207.14L320.92 207.49L321.29 207.85L321.64 208.22L321.99 208.6L322.33 208.99L322.65 209.39L322.98 209.79L323.29 210.21L323.59 210.63L323.89 211.06L324.18 211.5L324.46 211.95L324.73 212.41L324.99 212.88L325.25 213.35L325.5 213.83L325.74 214.33L325.97 214.83L326.2 215.33L326.42 215.85L326.63 216.37L326.71 216.57L326.79 216.76L326.87 216.95L326.94 217.14L327.02 217.33L327.1 217.52L327.17 217.72L327.25 217.91L327.33 218.1L327.4 218.29L327.48 218.48L327.55 218.67L327.63 218.86L327.71 219.05L327.78 219.24L327.86 219.43L327.94 219.62L328.02 219.81L328.1 220L328.18 220.19L328.26 220.37L328.34 220.56L328.42 220.75L328.5 220.94L328.59 221.12L328.67 221.31L328.76 221.49L328.85 221.68L328.94 221.86L329.03 222.04L329.12 222.23L329.22 222.41L329.31 222.59L329.41 222.77L329.51 222.95L329.61 223.13L329.72 223.31L329.82 223.49L329.93 223.66L330.04 223.84L330.16 224L330.27 224.15L330.38 224.31L330.5 224.45L330.61 224.6L330.73 224.74L330.85 224.88L330.97 225.01L331.09 225.14L331.22 225.27L331.34 225.39L331.47 225.51L331.6 225.63L331.73 225.74L331.86 225.85L331.99 225.95L332.13 226.05L332.27 226.14L332.41 226.23L332.55 226.32L332.69 226.4L332.84 226.48L332.99 226.55L333.15 226.62L333.3 226.68L333.46 226.74L333.62 226.8L333.79 226.85L333.95 226.89L334.12 226.93L334.3 226.96L334.47 226.99L334.65 227.02L334.84 227.04L335.02 227.05L335.22 227.06L335.41 227.06L335.61 227.06L335.81 227.05L336.02 227.04L336.18 227.02L336.33 227.01L336.49 226.99L336.65 226.97L336.81 226.95L336.96 226.93L337.12 226.91L337.27 226.89L337.43 226.86L337.58 226.84L337.73 226.82L337.88 226.79L338.04 226.76L338.19 226.74L338.34 226.71L338.49 226.68L338.64 226.65L338.79 226.62L338.93 226.59L339.08 226.56L339.23 226.53L339.38 226.49L339.53 226.46L339.67 226.43L339.82 226.39L339.96 226.35L340.11 226.32L340.26 226.28L340.4 226.24L340.55 226.2L340.69 226.16L340.84 226.12L340.98 226.08L341.12 226.03L341.27 225.99L341.41 225.95L341.56 225.9L341.7 225.85L341.85 225.81L341.99 225.76L342.3 225.65L342.61 225.55L342.91 225.46L343.2 225.38L343.48 225.31L343.75 225.24L344.01 225.19L344.26 225.14L344.51 225.11L344.74 225.09L344.97 225.07L345.18 225.07L345.39 225.08L345.59 225.1L345.78 225.14L345.96 225.18L346.13 225.24L346.28 225.31L346.44 225.4L346.58 225.49L346.71 225.6L346.83 225.73L346.94 225.87L347.04 226.02L347.14 226.19L347.22 226.37L347.29 226.57L347.35 226.78L347.41 227.01L347.45 227.26L347.48 227.52L347.51 227.8L347.52 228.1L347.52 228.41L347.51 228.74L347.5 229.09L347.47 229.46L347.43 229.84L347.38 230.24L347.32 230.67L347.27 231.07L347.22 231.46L347.15 231.86L347.09 232.25L347.01 232.64L346.94 233.02L346.85 233.41L346.76 233.79L346.67 234.17L346.57 234.55L346.46 234.93L346.36 235.3L346.24 235.67L346.12 236.04L346 236.41L345.87 236.77L345.73 237.14L345.59 237.5L345.45 237.86L345.3 238.21L345.14 238.57L344.98 238.92L344.82 239.27L344.65 239.62L344.48 239.97L344.3 240.31L344.12 240.66L343.93 241L343.74 241.34L343.54 241.68L343.34 242.01L343.14 242.35L342.93 242.68L342.72 243.01L342.5 243.34L342.28 243.67L342.05 243.99L341.82 244.32L341.59 244.64L341.35 244.96L341.14 245.26L340.93 245.56L340.71 245.85L340.49 246.14L340.26 246.43L340.03 246.71L339.8 246.99L339.56 247.27L339.33 247.54L339.08 247.81L338.84 248.08L338.59 248.34L338.34 248.6L338.08 248.85L337.82 249.1L337.56 249.35L337.3 249.6L337.04 249.84L336.77 250.08L336.5 250.32L336.22 250.55L335.95 250.79L335.67 251.02L335.39 251.24L335.11 251.47L334.82 251.69L334.54 251.91L334.25 252.12L333.96 252.34L333.67 252.55L333.38 252.76L333.08 252.97L332.79 253.17L332.49 253.38L332.19 253.58L331.89 253.78L331.59 253.98L331.29 254.17L330.99 254.37L330.68 254.56L330.52 254.69L330.34 254.84L330.16 255.01L329.97 255.21L329.77 255.43L329.56 255.68L329.34 255.94L329.12 256.22L328.89 256.51L328.66 256.83L328.43 257.15L328.19 257.49L327.94 257.85L327.7 258.21L327.45 258.58L327.2 258.96L326.95 259.35L326.7 259.74L326.45 260.13L326.2 260.53L325.96 260.93L325.71 261.33L325.47 261.73L325.23 262.13L325 262.53L324.77 262.92L324.54 263.3L324.32 263.68L324.11 264.04L323.9 264.4L323.7 264.75L323.51 265.08L323.33 265.4L323.16 265.7L323 265.99L322.85 266.26L322.71 266.52L322.58 266.75L322.47 266.96L322.36 267.15L322.01 267.83L321.66 268.52L321.3 269.21L320.95 269.9L320.59 270.59L320.24 271.27L319.88 271.96L319.52 272.65L319.17 273.34L318.81 274.03L318.45 274.71L318.09 275.4L317.73 276.09L317.37 276.78L317.02 277.47L316.66 278.15L316.3 278.84L315.94 279.53L315.58 280.22L314.86 281.59L314.5 282.28L314.14 282.97L313.78 283.66L313.42 284.35L313.06 285.03L312.7 285.72L312.34 286.41L311.98 287.1L311.62 287.79L311.26 288.47L310.91 289.16L310.55 289.85L310.19 290.54L309.84 291.23L309.48 291.91L309.13 292.6L308.77 293.29L308.42 293.98L308.07 294.67L307.94 294.92L307.82 295.16L307.7 295.4L307.59 295.62L307.48 295.84L307.37 296.05L307.26 296.26L307.16 296.46L307.06 296.65L306.97 296.83L306.88 297.01L306.79 297.18L306.7 297.35L306.61 297.51L306.53 297.66L306.45 297.81L306.37 297.96L306.3 298.1L306.22 298.24L306.15 298.37L306.08 298.5L306.01 298.63L305.94 298.75L305.87 298.88L305.81 298.99L305.74 299.11L305.68 299.22L305.61 299.34L305.55 299.45L305.49 299.56L305.43 299.67L305.37 299.77L305.3 299.88L305.24 299.99L305.18 300.09L305.06 300.31L305 300.42L304.93 300.53L304.87 300.64L304.71 300.86L304.55 301.06L304.39 301.26L304.24 301.43L304.08 301.6L303.92 301.76L303.77 301.9L303.61 302.03L303.46 302.15L303.31 302.26L303.16 302.35L303.01 302.44L302.86 302.51L302.71 302.57L302.56 302.62L302.41 302.65L302.26 302.68L302.12 302.7L301.97 302.7L301.83 302.69L301.69 302.68L301.54 302.65L301.4 302.61L301.26 302.56L301.12 302.5L300.98 302.43L300.84 302.35L300.7 302.26L300.57 302.16L300.43 302.05L300.29 301.93L300.16 301.8L300.02 301.66L299.89 301.51L299.76 301.35L299.63 301.19L299.5 301.01L299.37 300.83L299.24 300.63L299.11 300.43L299.01 300.28L298.92 300.14L298.83 299.99L298.74 299.85L298.65 299.71L298.56 299.56L298.47 299.42L298.39 299.27L298.3 299.13L298.22 298.99L298.14 298.84L298.06 298.7L297.97 298.55L297.89 298.41L297.82 298.27L297.74 298.12L297.66 297.98L297.58 297.83L297.51 297.69L297.43 297.55L297.35 297.4L297.28 297.26L297.2 297.11L297.13 296.97L297.05 296.83L296.98 296.68L296.9 296.54L296.83 296.39L296.75 296.25L296.68 296.11L296.6 295.96L296.53 295.82L296.45 295.67L296.38 295.53L296.3 295.39L296.22 295.24L296.15 295.1L296.07 294.95L295.99 294.81L295.91 294.67L295.73 294.22L295.55 293.77L295.36 293.33L295.18 292.89L294.98 292.45L294.79 292.01L294.59 291.57L294.39 291.13L294.18 290.69L293.98 290.26L293.77 289.82L293.56 289.39L293.34 288.96L293.13 288.52L292.91 288.09L292.69 287.66L292.47 287.23L292.25 286.8L292.03 286.38L291.8 285.95L291.58 285.52L291.35 285.09L291.13 284.66L290.9 284.24L290.68 283.81L290.45 283.38L290.22 282.96L290 282.53L289.77 282.1L289.55 281.68L289.33 281.25L289.1 280.82L288.88 280.39L288.66 279.97L288.44 279.54L288.23 279.11L288.01 278.68L287.8 278.25L287.59 277.82L287.38 277.39L287.17 276.99L286.96 276.59L286.75 276.18L286.54 275.78L286.34 275.38L286.13 274.97L285.92 274.57L285.71 274.16L285.5 273.76L285.3 273.35L285.09 272.95L284.88 272.54L284.67 272.13L284.46 271.73L284.26 271.32L284.05 270.91L283.84 270.5L283.63 270.1L283.42 269.69L283.01 268.87L282.8 268.46L282.59 268.06L282.38 267.65L282.18 267.24L281.97 266.83L281.76 266.43L281.55 266.02L281.34 265.61L281.14 265.21L280.93 264.8L280.72 264.4L280.51 263.99L280.3 263.59L280.1 263.18L279.89 262.78L279.68 262.38L279.47 261.98L279.26 261.57L279.06 261.17L278.99 261.05L278.92 260.92L278.85 260.8L278.78 260.68L278.7 260.56L278.62 260.45L278.53 260.34L278.45 260.22L278.36 260.12L278.27 260.01L278.18 259.91L278.08 259.8L277.98 259.7L277.88 259.61L277.78 259.51L277.68 259.42L277.57 259.33L277.46 259.24L277.35 259.15L277.24 259.07L277.13 258.98L277.02 258.9L276.9 258.82L276.78 258.75L276.66 258.67L276.54 258.6L276.42 258.53L276.3 258.46L276.18 258.39L276.06 258.32L275.93 258.26L275.81 258.2L275.68 258.14L275.55 258.08L275.43 258.02L275.3 257.97L275.17 257.91L275.05 257.86L274.92 257.81L274.79 257.76L274.39 257.6L273.99 257.44L273.6 257.27L273.2 257.1L272.81 256.93L272.42 256.75L272.03 256.58L271.64 256.4L271.26 256.21L270.88 256.03L270.5 255.84L270.12 255.64L269.74 255.45L269.36 255.25L268.99 255.05L268.62 254.84L268.25 254.63L267.89 254.41L267.52 254.2L267.16 253.97L266.8 253.75L266.45 253.52L266.09 253.28L265.74 253.04L265.39 252.8L265.05 252.55L264.7 252.3L264.36 252.05L264.02 251.79L263.69 251.52L263.36 251.25L263.03 250.97L262.7 250.69L262.38 250.41L262.06 250.12L261.74 249.82L261.42 249.52L261.11 249.22L260.8 248.9L260.5 248.59L259.93 247.96L259.37 247.33L258.84 246.7L258.32 246.06L257.81 245.42L257.32 244.77L256.85 244.12L256.4 243.46L255.96 242.8L255.54 242.14L255.14 241.47L254.75 240.79L254.39 240.11L254.04 239.43L253.71 238.74L253.4 238.05L253.11 237.35L252.84 236.65L252.59 235.94L252.36 235.23L252.15 234.51L251.96 233.78L251.8 233.06L251.65 232.32L251.52 231.58L251.42 230.84L251.34 230.08L251.28 229.33L251.24 228.56L251.23 227.8L251.23 227.02L251.27 226.24L251.32 225.46L251.4 224.67L251.5 223.87L251.63 223.06L251.78 222.25L251.96 221.44L252.16 220.62L252.39 219.79L252.54 219.28L252.7 218.78L252.86 218.28L253.04 217.79L253.23 217.31L253.42 216.83L253.63 216.36L253.84 215.89L254.06 215.43L254.29 214.98L254.53 214.53L254.77 214.09L255.03 213.65L255.29 213.22L255.56 212.79L255.84 212.37L256.13 211.96L256.42 211.55L256.72 211.15L257.03 210.75L257.34 210.35L257.67 209.97L258 209.58L258.33 209.2L258.68 208.83L259.03 208.46L259.38 208.1L259.75 207.74L260.11 207.39L260.49 207.04L260.87 206.69L261.26 206.35L261.65 206.02L262.05 205.68L262.45 205.36L262.86 205.04L263.28 204.72L263.7 204.4L264.12 204.09L264.55 203.79L265.01 203.47L265.48 203.16L265.95 202.85L266.42 202.55L266.89 202.26L267.36 201.97L267.84 201.68L268.31 201.4L268.79 201.13L269.27 200.86L269.75 200.6L270.24 200.34L270.72 200.09L271.21 199.85L271.7 199.61L272.19 199.37L272.68 199.14L273.18 198.91L273.68 198.69L274.18 198.48L274.68 198.27L275.18 198.07L275.69 197.87L276.19 197.67L276.7 197.48L277.21 197.3L277.73 197.12L278.24 196.95L278.76 196.78L279.28 196.62L279.8 196.46L280.33 196.3L280.85 196.16L281.38 196.01L281.91 195.87L282.45 195.74L282.98 195.61L283.52 195.49L284.06 195.37L284.6 195.25L284.65 195.25L284.7 195.25L284.74 195.25L284.79 195.25L284.83 195.24L284.88 195.24L284.92 195.24L284.96 195.23L285.01 195.22L285.05 195.22L285.09 195.21L285.13 195.2L285.17 195.19L285.21 195.18L285.26 195.17L285.3 195.16L285.34 195.15L285.38 195.14L285.42 195.13L285.46 195.12L285.5 195.11L285.54 195.1L285.58 195.08L285.62 195.07L285.66 195.06L285.7 195.04L285.74 195.03L285.78 195.01L285.82 195L285.86 194.98L285.9 194.97L285.99 194.94L286.03 194.92L286.08 194.91L286.12 194.89L286.17 194.87L286.21 194.86L286.26 194.84L286.31 194.83L286.48 194.77L286.65 194.71L286.81 194.66L286.97 194.61L287.12 194.57L287.27 194.53L287.41 194.5L287.55 194.47L287.69 194.45L287.82 194.44L287.94 194.43L288.06 194.42L288.18 194.42L288.3 194.43ZM297.64 222.91L296.36 223.33L295.15 223.89L294.03 224.59L293 225.41L292.08 226.35L291.27 227.38L290.58 228.51L290.04 229.71L289.63 230.97L289.38 232.29L289.3 233.65L289.38 235.06L289.64 236.4L290.06 237.69L290.63 238.9L291.33 240.02L292.15 241.05L293.08 241.97L294.12 242.78L295.24 243.46L296.44 244.01L297.71 244.41L299.03 244.66L300.39 244.75L301.79 244.66L303.14 244.41L304.42 244.01L305.63 243.46L306.75 242.78L307.78 241.97L308.7 241.05L309.51 240.02L310.19 238.9L310.74 237.69L311.15 236.4L311.4 235.06L311.48 233.65L311.39 232.25L311.13 230.9L310.72 229.62L310.15 228.41L309.45 227.29L308.63 226.26L307.7 225.34L306.66 224.53L305.54 223.85L304.34 223.3L303.07 222.9L301.75 222.65L300.39 222.56L298.99 222.65L297.64 222.91Z" id="bbs3JRNLg"></path></defs><g><g><use xlink:href="#a2796vQEf6" opacity="1" fill="#7a96ac" fill-opacity="1"></use><g><use xlink:href="#a2796vQEf6" opacity="1" fill-opacity="0" stroke="#000000" stroke-width="1" stroke-opacity="0"></use></g></g><g><use xlink:href="#bbs3JRNLg" opacity="1" fill="#f79d31" fill-opacity="1"></use><g><use xlink:href="#bbs3JRNLg" opacity="1" fill-opacity="0" stroke="#000000" stroke-width="1" stroke-opacity="0"></use></g></g></g></svg>